<?xml version="1.0" encoding="utf-8"?>
<!-- Generator: Adobe Illustrator 15.0.0, SVG Export Plug-In . SVG Version: 6.00 Build 0)  -->
<!DOCTYPE svg PUBLIC "-//W3C//DTD SVG 1.1//EN" "http://www.w3.org/Graphics/SVG/1.1/DTD/svg11.dtd">
<svg version="1.1" id="Layer_1" xmlns="http://www.w3.org/2000/svg" xmlns:xlink="http://www.w3.org/1999/xlink" x="0px" y="0px"
	 width="286.3px" height="286.3px" viewBox="0 0 286.3 286.3" enable-background="new 0 0 286.3 286.3" xml:space="preserve">
<g>
	<g>
		<linearGradient id="SVGID_1_" gradientUnits="userSpaceOnUse" x1="143.1489" y1="2.9175" x2="143.1489" y2="283.3823">
			<stop  offset="0" style="stop-color:#9DD5BE"/>
			<stop  offset="0.1318" style="stop-color:#72C297"/>
			<stop  offset="0.2755" style="stop-color:#3AB374"/>
			<stop  offset="0.3455" style="stop-color:#05AE66"/>
		</linearGradient>
		<path fill="url(#SVGID_1_)" d="M143.149,283.382c-77.324,0-140.232-62.908-140.232-140.232
			c0-77.324,62.908-140.232,140.232-140.232S283.382,65.826,283.382,143.15C283.382,220.474,220.474,283.382,143.149,283.382z"/>
		<path fill="#05AE66" d="M143.149,4.417c37.057,0,71.896,14.431,98.099,40.634c26.203,26.203,40.634,61.042,40.634,98.098
			s-14.431,71.895-40.634,98.098s-61.042,40.634-98.099,40.634c-37.056,0-71.895-14.431-98.098-40.634
			C18.848,215.045,4.417,180.206,4.417,143.15s14.431-71.895,40.634-98.098C71.255,18.848,106.093,4.417,143.149,4.417
			 M143.149,1.417C64.874,1.417,1.417,64.875,1.417,143.15c0,78.276,63.457,141.732,141.732,141.732
			c78.277,0,141.732-63.456,141.732-141.732C284.882,64.875,221.427,1.417,143.149,1.417L143.149,1.417z"/>
	</g>
	<g>
		<path fill="#FFFFFF" d="M88.618,74.347h59.283c8.854,0,17.098,1.415,24.734,4.238c7.629,2.822,14.24,7.059,19.822,12.699
			c5.582,5.652,9.943,12.707,13.09,21.176c3.143,8.469,4.717,18.414,4.717,29.835c0,10.007-1.287,19.249-3.852,27.716
			c-2.568,8.469-6.449,15.783-11.646,21.941c-5.195,6.158-11.676,11.004-19.439,14.531c-7.764,3.535-16.906,5.294-27.426,5.294
			H88.618V74.347z M118.837,186.371h26.945c4.361,0,8.596-0.703,12.705-2.117c4.104-1.412,7.762-3.754,10.971-7.023
			c3.205-3.274,5.773-7.539,7.699-12.803c1.926-5.258,2.887-11.674,2.887-19.248c0-6.927-0.674-13.186-2.021-18.764
			c-1.348-5.582-3.559-10.36-6.641-14.342c-3.08-3.975-7.154-7.023-12.221-9.143c-5.072-2.119-11.326-3.174-18.768-3.174h-21.557
			V186.371z"/>
	</g>
</g>
</svg>
