<svg id="visual" viewBox="0 0 4096 2160" width="4096" height="2160" xmlns="http://www.w3.org/2000/svg" xmlns:xlink="http://www.w3.org/1999/xlink" version="1.1"><path d="M0 347L341 368L683 325L1024 325L1365 347L1707 347L2048 347L2389 239L2731 282L3072 260L3413 303L3755 303L4096 325L4096 0L3755 0L3413 0L3072 0L2731 0L2389 0L2048 0L1707 0L1365 0L1024 0L683 0L341 0L0 0Z" fill="#63efd1"></path><path d="M0 1016L341 1124L683 1038L1024 1059L1365 908L1707 1038L2048 822L2389 843L2731 951L3072 800L3413 800L3755 865L4096 1038L4096 323L3755 301L3413 301L3072 258L2731 280L2389 237L2048 345L1707 345L1365 345L1024 323L683 323L341 366L0 345Z" fill="#4bbaa1"></path><path d="M0 1405L341 1427L683 1405L1024 1470L1365 1297L1707 1383L2048 1254L2389 1211L2731 1275L3072 1124L3413 1254L3755 1275L4096 1448L4096 1036L3755 863L3413 798L3072 798L2731 949L2389 841L2048 820L1707 1036L1365 906L1024 1057L683 1036L341 1122L0 1014Z" fill="#348774"></path><path d="M0 1707L341 1643L683 1686L1024 1686L1365 1535L1707 1686L2048 1556L2389 1448L2731 1491L3072 1405L3413 1491L3755 1556L4096 1686L4096 1446L3755 1273L3413 1252L3072 1122L2731 1273L2389 1209L2048 1252L1707 1381L1365 1295L1024 1468L683 1403L341 1425L0 1403Z" fill="#1e574a"></path><path d="M0 2161L341 2161L683 2161L1024 2161L1365 2161L1707 2161L2048 2161L2389 2161L2731 2161L3072 2161L3413 2161L3755 2161L4096 2161L4096 1684L3755 1554L3413 1489L3072 1403L2731 1489L2389 1446L2048 1554L1707 1684L1365 1533L1024 1684L683 1684L341 1641L0 1705Z" fill="#0a2c24"></path></svg>