<?xml version="1.0" standalone="no"?>
<svg xmlns="http://www.w3.org/2000/svg" viewBox="0 0 125.6 29" width="125.6" height="29"><g fill="#6a8bff" color="#6a8bff" transform="translate(0, 0) scale(0.6041667)"><svg width="44.0" height="48.0" x="0.0" y="0.0" viewBox="0 0 44 48"><path fill="currentColor" fill-rule="evenodd" d="M26.592 7.876c-1.442 3.958-2.352 9.744-2.352 16.195 0 6.393.894 12.136 2.311 16.09-.691.939-1.454 1.46-2.256 1.46-3.13-.003-5.665-7.895-5.665-17.634 0-9.734 2.535-17.63 5.661-17.63.82.001 1.599.546 2.3 1.52M37.084 24.07c.003 6.693-1.663 12.123-3.716 12.123s-3.717-5.43-3.717-12.121c0-6.696 1.664-12.124 3.717-12.127 2.056.003 3.719 5.43 3.716 12.125M21.51 0c2.12.002 4.037 2.67 5.43 6.98 1.172-2.82 2.642-4.504 4.238-4.504 3.83-.005 6.936 9.668 6.934 21.594.002 11.926-3.106 21.597-6.937 21.596-1.607 0-3.089-1.711-4.265-4.573-1.389 4.256-3.296 6.882-5.397 6.884-4.257-.002-7.708-10.74-7.708-23.99C13.805 10.745 17.257 0 21.51 0zm-6.145 2.36c-5.194 4.504-8.651 12.467-8.651 21.535 0 9.067 3.455 17.03 8.655 21.531C6.292 41.661-.003 33.435 0 23.894 0 14.356 6.292 6.129 15.365 2.361zm26.647 14.91c1.098 0 1.986 2.9 1.988 6.483-.002 3.577-.891 6.48-1.99 6.48-1.096 0-1.985-2.9-1.987-6.482-.002-3.58.891-6.482 1.99-6.482z"></path></svg></g><line x1="38.584" y1="1" x2="38.584" y2="28" stroke="#5e24c3" stroke-linecap="round"></line><path fill="#5e24c3" fill-rule="nonzero" d="M5.62 16.73L5.62 16.73Q4.10 16.73 2.80 16.56Q1.49 16.39 0.02 16.32L0.02 16.32Q0 16.18 0 15.74Q0 15.31 0.07 14.98L0.07 14.98L1.03 14.90Q1.25 12.46 1.25 8.41Q1.25 4.37 1.01 2.47L1.01 2.47L0.07 2.40Q0 2.11 0 1.66Q0 1.20 0.02 1.06L0.02 1.06Q1.61 1.03 2.88 0.84Q4.15 0.65 5.62 0.65L5.62 0.65Q8.66 0.65 10.30 2.70Q11.93 4.75 11.93 8.57L11.93 8.57Q11.93 16.73 5.62 16.73ZM5.62 15.02L5.62 15.02Q7.68 15.02 8.77 13.37Q9.86 11.71 9.86 8.58Q9.86 5.45 8.76 3.76Q7.66 2.06 5.59 2.06L5.59 2.06Q4.39 2.06 3.22 2.52L3.22 2.52Q3.05 4.56 3.05 8.45Q3.05 12.34 3.24 14.52L3.24 14.52Q4.37 15.02 5.62 15.02ZM22.32 8.09L22.32 8.09L22.22 11.54Q22.22 13.18 22.42 14.74L22.42 14.74L23.30 14.81Q23.35 15.19 23.35 15.52Q23.35 15.84 23.28 16.20L23.28 16.20Q22.58 16.22 20.57 16.44L20.57 16.44Q20.40 15.98 20.30 15.31L20.30 15.31Q18.43 16.73 17.08 16.73Q15.72 16.73 14.96 15.85Q14.21 14.98 14.21 13.36Q14.21 11.74 15.23 10.80Q16.25 9.86 17.80 9.86Q19.34 9.86 20.45 10.44L20.45 10.44Q20.47 10.18 20.47 9.58L20.47 9.58Q20.47 7.80 19.98 7.02Q19.49 6.24 18.48 6.24Q17.47 6.24 17.02 6.62L17.02 6.62Q17.21 7.01 17.21 7.58Q17.21 8.16 16.84 8.58Q16.46 9.00 15.79 9.00L15.79 9.00Q14.66 9.00 14.66 7.67Q14.66 6.34 15.67 5.62Q16.68 4.90 18.50 4.90Q20.33 4.90 21.32 5.75Q22.32 6.60 22.32 8.09ZM20.35 11.95L20.35 11.95Q19.37 11.11 18.24 11.11L18.24 11.11Q16.08 11.11 16.08 13.03L16.08 13.03Q16.08 15.00 17.78 15.00L17.78 15.00Q18.41 15.00 19.12 14.68Q19.82 14.35 20.23 13.87L20.23 13.87Q20.35 12.43 20.35 11.95ZM29.18 4.90Q30.86 4.90 31.86 5.69Q32.86 6.48 32.86 7.74Q32.86 9.00 31.73 9.00L31.73 9.00Q31.06 9.00 30.68 8.58Q30.31 8.16 30.31 7.58Q30.31 7.01 30.50 6.62L30.50 6.62Q29.93 6.17 29.14 6.17Q28.34 6.17 27.83 6.55Q27.31 6.94 27.31 7.68Q27.31 8.42 27.90 8.98Q28.49 9.53 29.33 9.88Q30.17 10.22 31.01 10.60Q31.85 10.97 32.44 11.65Q33.02 12.34 33.02 13.34L33.02 13.34Q33.02 14.90 31.98 15.82Q30.94 16.73 29.14 16.73Q27.34 16.73 26.20 15.96Q25.06 15.19 25.06 13.94L25.06 13.94L25.06 13.85Q25.06 12.55 26.18 12.55L26.18 12.55Q26.86 12.55 27.23 12.97Q27.60 13.39 27.60 13.94Q27.60 14.50 27.48 14.81L27.48 14.81Q27.96 15.12 29.00 15.12Q30.05 15.12 30.59 14.76Q31.13 14.40 31.13 13.76Q31.13 13.13 30.54 12.62Q29.95 12.12 29.11 11.77Q28.27 11.42 27.43 11.03Q26.59 10.63 26.00 9.89Q25.42 9.14 25.42 8.11L25.42 8.11Q25.42 6.62 26.46 5.76Q27.50 4.90 29.18 4.90ZM36.05 11.69Q36.79 11.69 37.20 12.14Q37.61 12.60 37.61 13.26Q37.61 13.92 37.39 14.33L37.39 14.33Q38.45 15.19 39.83 15.19Q41.21 15.19 41.90 14.56Q42.60 13.92 42.60 12.82Q42.60 11.71 41.83 10.92Q41.06 10.13 39.97 9.60Q38.88 9.07 37.80 8.48Q36.72 7.90 35.95 6.91Q35.18 5.93 35.18 4.58L35.18 4.58Q35.18 2.74 36.41 1.69Q37.63 0.65 39.55 0.65Q41.47 0.65 42.88 1.56Q44.28 2.47 44.28 4.02Q44.28 5.57 43.03 5.57L43.03 5.57Q42.29 5.57 41.88 5.11Q41.47 4.66 41.47 3.94Q41.47 3.22 41.76 2.83L41.76 2.83Q40.92 2.06 39.70 2.06Q38.47 2.06 37.86 2.69Q37.25 3.31 37.25 4.25Q37.25 5.18 37.80 5.84Q38.35 6.50 39.17 6.92Q39.98 7.34 40.94 7.88Q41.90 8.42 42.72 8.95Q43.54 9.48 44.09 10.38Q44.64 11.28 44.64 12.43L44.64 12.43Q44.64 14.33 43.33 15.53Q42.02 16.73 39.98 16.73Q37.94 16.73 36.37 15.78Q34.80 14.83 34.80 13.13L34.80 13.13Q34.80 11.69 36.05 11.69L36.05 11.69ZM52.82 4.90L52.82 4.90Q56.21 4.90 56.21 10.66L56.21 10.66Q56.21 12.86 55.34 14.66L55.34 14.66Q54.86 15.62 53.90 16.18Q52.94 16.73 51.77 16.73Q50.59 16.73 49.32 16.15L49.32 16.15Q49.44 19.15 49.54 19.99L49.54 19.99L50.42 20.06L50.47 20.69Q50.47 21.17 50.40 21.41L50.40 21.41Q49.82 21.38 48.42 21.38Q47.02 21.38 46.54 21.41L46.54 21.41Q46.46 21 46.46 20.69Q46.46 20.38 46.51 20.06L46.51 20.06L47.40 19.99Q47.59 17.38 47.59 13.00Q47.59 8.62 47.40 6.60L47.40 6.60L46.51 6.53Q46.44 6.31 46.44 5.84Q46.44 5.38 46.46 5.18L46.46 5.18Q47.57 5.16 49.42 4.97L49.42 4.97L49.54 5.09Q49.44 5.78 49.42 6.46L49.42 6.46Q51.07 4.90 52.82 4.90ZM51.55 15.00L51.55 15.00Q54.17 15.00 54.17 10.34L54.17 10.34Q54.17 7.51 53.23 6.77L53.23 6.77Q52.80 6.43 52.10 6.43Q51.41 6.43 50.64 6.89Q49.87 7.34 49.34 7.99L49.34 7.99Q49.30 9.98 49.30 14.45L49.30 14.45Q50.69 15.00 51.55 15.00ZM59.64 10.80L59.64 10.80L59.64 7.51Q59.64 3.19 59.52 1.63L59.52 1.63L58.56 1.56Q58.49 1.25 58.49 0.83Q58.49 0.41 58.51 0.22L58.51 0.22Q60.70 0.10 61.63 0L61.63 0L61.73 0.12Q61.39 2.98 61.39 6.26L61.39 6.26L61.39 10.22Q61.39 13.18 61.61 14.98L61.61 14.98L62.50 15.05Q62.54 15.43 62.54 15.71Q62.54 15.98 62.47 16.39L62.47 16.39Q61.63 16.37 60.53 16.37Q59.42 16.37 58.61 16.39L58.61 16.39Q58.54 16.03 58.54 15.76Q58.54 15.48 58.58 15.05L58.58 15.05L59.42 14.98Q59.64 12.72 59.64 10.80ZM64.80 15.05L65.64 14.98Q65.86 12.62 65.86 10.67Q65.86 8.71 65.66 6.60L65.66 6.60L64.78 6.53Q64.70 6.12 64.70 5.75Q64.70 5.38 64.73 5.18L64.73 5.18Q66.12 5.14 67.70 4.97L67.70 4.97L67.82 5.09Q67.61 6.50 67.61 9.84Q67.61 13.18 67.82 14.98L67.82 14.98L68.71 15.05Q68.76 15.43 68.76 15.71Q68.76 15.98 68.69 16.39L68.69 16.39Q67.85 16.37 66.74 16.37Q65.64 16.37 64.82 16.39L64.82 16.39Q64.75 16.03 64.75 15.65Q64.75 15.26 64.80 15.05L64.80 15.05ZM68.06 1.66L68.06 1.66Q68.06 3.14 66.53 3.14L66.53 3.14Q65.33 3.14 65.33 1.92L65.33 1.92Q65.33 0.41 66.86 0.41L66.86 0.41Q68.06 0.41 68.06 1.66ZM71.57 12.48L71.57 12.48Q71.57 12.48 71.62 7.13L71.62 7.13Q71.62 6.77 71.59 6.58L71.59 6.58Q70.58 6.58 70.15 6.60L70.15 6.60Q70.01 6.22 70.01 5.84Q70.01 5.47 70.06 5.28L70.06 5.28L71.52 5.28L71.40 3.50Q72 3.31 72.66 3.31Q73.32 3.31 73.75 3.41L73.75 3.41L73.54 5.26Q74.86 5.23 76.20 5.11L76.20 5.11Q76.34 5.42 76.34 5.80Q76.34 6.17 76.25 6.70L76.25 6.70Q75.36 6.65 73.44 6.60L73.44 6.60Q73.39 7.08 73.39 8.02L73.39 8.02L73.39 12.89Q73.39 13.51 73.45 13.91Q73.51 14.30 73.76 14.63Q74.02 14.95 74.50 14.95L74.50 14.95Q75.55 14.95 76.51 14.21L76.51 14.21Q77.02 14.93 77.02 16.15L77.02 16.15Q75.70 16.73 74.72 16.73Q73.75 16.73 73.18 16.48Q72.60 16.22 72.29 15.88Q71.98 15.53 71.81 14.90L71.81 14.90Q71.57 14.02 71.57 12.48Z" transform="translate(48.584, 6.316)"></path></svg>